<?xml version="1.0" encoding="utf-8"?>
<!-- Generator: Adobe Illustrator 25.2.1, SVG Export Plug-In . SVG Version: 6.00 Build 0)  -->
<svg version="1.1" id="Layer_1" xmlns="http://www.w3.org/2000/svg" xmlns:xlink="http://www.w3.org/1999/xlink" x="0px" y="0px"
	 viewBox="0 0 246.9 254" style="enable-background:new 0 0 246.9 254;" xml:space="preserve">
<style type="text/css">
	.st0{fill:none;stroke:#000000;stroke-miterlimit:10;}
	.st1{font-family:'Arial-BoldMT';}
	.st2{font-size:6.4244px;}
	.st3{font-family:'ArialMT';}
	.st4{font-size:4.8183px;}
	.st5{fill:none;stroke:#000000;stroke-width:0.5;stroke-miterlimit:10;}
	.st6{fill:#FFFFFF;stroke:#000000;stroke-width:0.838;stroke-miterlimit:10;}
</style>
<rect x="24.1" y="34.4" class="st0" width="201.7" height="201.7"/>
<circle class="st0" cx="57.2" cy="67.3" r="6.9"/>
<circle class="st0" cx="203.8" cy="213.4" r="2.1"/>
<line class="st0" x1="80.6" y1="81.6" x2="80.6" y2="191.6"/>
<text transform="matrix(1 0 0 1 75.7627 58.6989)" class="st1 st2">Robot</text>
<text transform="matrix(1 0 0 1 75.7627 64.4789)" class="st3 st4">Shape: Circle </text>
<text transform="matrix(1 0 0 1 75.7627 70.2589)" class="st3 st4">Diameter: 25</text>
<text transform="matrix(1 0 0 1 75.7627 75.6253)" class="st3 st4">Initial angle: 0 RAD</text>
<text transform="matrix(1 0 0 1 86.7051 128.518)" class="st1 st2">Obstacle</text>
<text transform="matrix(1 0 0 1 86.7051 134.298)" class="st3 st4">Shape: Line </text>
<text transform="matrix(1 0 0 1 24.0968 17.3444)" class="st1 st2">Arena</text>
<text transform="matrix(1 0 0 1 24.0968 23.1244)" class="st3 st4">Size: 1000 x 1000</text>
<text transform="matrix(1 0 0 1 16.4339 144.8623)" class="st1 st2">Y</text>
<text transform="matrix(1 0 0 1 132.181 30.4569)" class="st1 st2">X</text>
<text transform="matrix(1 0 0 1 169.0752 209.6815)" class="st1 st2">PowerUp</text>
<text transform="matrix(1 0 0 1 169.0752 215.4615)" class="st3 st4">Shape: Circle </text>
<text transform="matrix(1 0 0 1 169.0752 221.2415)" class="st3 st4">Diameter: 10</text>
<g>
	<g>
		<line class="st5" x1="24.1" y1="28.5" x2="126.5" y2="28.5"/>
		<g>
			<polygon points="125.8,30.9 130.1,28.5 125.8,26 			"/>
		</g>
	</g>
</g>
<g>
	<g>
		<line class="st5" x1="18.4" y1="34.4" x2="18.4" y2="133"/>
		<g>
			<polygon points="15.9,132.3 18.4,136.6 20.9,132.3 			"/>
		</g>
	</g>
</g>
<path class="st6" d="M57.5,67.3c3.3,0,6.5,0,9.8,0"/>
</svg>
